{"title":"Dragon Eyes [2012] DVDRip H264 elite-pirates","uid":7175425,"size":573542487,"categoryP":"video","categoryS":"movies","magnet":"?xt=urn:btih:33b62f00abecb6e92ec681948ce7e576095070a9&amp;dn=Dragon+Eyes+%5B2012%5D+DVDRip+H264+elite-pirates&amp;tr=udp%3A%2F%2Ftracker.openbittorrent.com%3A80&amp;tr=udp%3A%2F%2Fopen.demonii.com%3A1337&amp;tr=udp%3A%2F%2Ftracker.coppersurfer.tk%3A6969&amp;tr=udp%3A%2F%2Fexodus.desync.com%3A6969","seeders":0,"leechers":1,"uploader":"BLOVES","files":4,"time":1334094400,"description":"IMDb : http://www.imdb.com/title/tt1735862/\nSource : AC3-NYDIC... Thanks!!!\nEncoder : dcloser\nAudio Language : English\n\n\nGeneral\nComplete name : Dragon Eyes [2012] DVDRip H264 elite-pirates.com.avi\nFormat : AVI\nFormat/Info : Audio Video Interleave\nFile size : 547 MiB\nDuration : 1h 27mn\nOverall bit rate : 876 Kbps\nWriting library : VirtualDub build 32842/release\n\nVideo\nID : 0\nFormat : AVC\nFormat/Info : Advanced Video Codec\nFormat profile : &lt;a class=&quot;__cf_email__&quot; href=&quot;/cdn-cgi/l/email-protection&quot; data-cfemail=&quot;6820010f0028245b4658&quot;&gt;[email&amp;#160;protected]&lt;/a&gt;&lt;script cf-hash='f9e31' type=&quot;text/javascript&quot;&gt;\n/* &lt;![CDATA[ */!function(){try{var t=&quot;currentScript&quot;in document?document.currentScript:function(){for(var t=document.getElementsByTagName(&quot;script&quot;),e=t.length;e--;)if(t[e].getAttribute(&quot;cf-hash&quot;))return t[e]}();if(t&amp;&amp;t.previousSibling){var e,r,n,i,c=t.previousSibling,a=c.getAttribute(&quot;data-cfemail&quot;);if(a){for(e=&quot;&quot;,r=parseInt(a.substr(0,2),16),n=2;a.length-n;n+=2)i=parseInt(a.substr(n,2),16)^r,e+=String.fromCharCode(i);e=document.createTextNode(e),c.parentNode.replaceChild(e,c)}}}catch(u){}}();/* ]]&gt; */&lt;/script&gt;\nFormat settings, CABAC : Yes\nFormat settings, ReFrames : 3 frames\nCodec ID : H264\nDuration : 1h 27mn\nBit rate : 543 Kbps\nWidth : 720 pixels\nHeight : 480 pixels\nDisplay aspect ratio : 3:2\nFrame rate : 29.970 fps\nStandard : NTSC\nColor space : YUV\nChroma subsampling : 4:2:0\nBit depth : 8 bits\nScan type : Progressive\nBits/(Pixel*Frame) : 0.052\nStream size : 339 MiB (62%)\nWriting library : x264 core 120 r2120bm 0c7dab9\nEncoding settings : cabac=1 / ref=3 / deblock=1:0:0 / analyse=0x3:0x113\n\nAudio\nID : 1\nFormat : MPEG Audio\nFormat version : Version 1\nFormat profile : Layer 3\nMode : Joint stereo\nMode extension : MS Stereo\nCodec ID : 55\nCodec ID/Hint : MP3\nDuration : 1h 27mn\nBit rate mode : Constant\nBit rate : 320 Kbps\nChannel(s) : 2 channels\nSampling rate : 44.1 KHz\nCompression mode : Lossy\nStream size : 200 MiB (36%)\nAlignment : Aligned on interleaves\nInterleave, duration : 26 ms (0.78 video frame)\nInterleave, preload duration : 522 ms\nWriting library : LAME3.97","torrent":{"xt":"urn:btih:33b62f00abecb6e92ec681948ce7e576095070a9","amp;dn":"Dragon+Eyes+%5B2012%5D+DVDRip+H264+elite-pirates","amp;tr":["udp%3A%2F%2Ftracker.openbittorrent.com%3A80","udp%3A%2F%2Fopen.demonii.com%3A1337","udp%3A%2F%2Ftracker.coppersurfer.tk%3A6969","udp%3A%2F%2Fexodus.desync.com%3A6969"],"infoHash":"33b62f00abecb6e92ec681948ce7e576095070a9","infoHashBuffer":{"type":"Buffer","data":[51,182,47,0,171,236,182,233,46,198,129,148,140,231,229,118,9,80,112,169]},"announce":[],"urlList":[]}}